<mxfile host="app.diagrams.net" agent="Mozilla/5.0 (Windows NT 10.0; Win64; x64) AppleWebKit/537.36 (KHTML, like Gecko) Chrome/139.0.0.0 Safari/537.36" version="28.1.1">
  <diagram name="Page-1" id="YKtLKecvW_uaoxb6aRR4">
    <mxGraphModel dx="1892" dy="562" grid="1" gridSize="10" guides="1" tooltips="1" connect="1" arrows="1" fold="1" page="1" pageScale="1" pageWidth="850" pageHeight="1100" math="0" shadow="0">
      <root>
        <mxCell id="0" />
        <mxCell id="1" parent="0" />
        <mxCell id="GEz0xPtirsJlxBKpZYnD-4" value="" style="edgeStyle=orthogonalEdgeStyle;rounded=0;orthogonalLoop=1;jettySize=auto;html=1;" parent="1" source="GEz0xPtirsJlxBKpZYnD-1" target="GEz0xPtirsJlxBKpZYnD-2" edge="1">
          <mxGeometry relative="1" as="geometry" />
        </mxCell>
        <mxCell id="GEz0xPtirsJlxBKpZYnD-6" value="" style="edgeStyle=orthogonalEdgeStyle;rounded=0;orthogonalLoop=1;jettySize=auto;html=1;" parent="1" source="GEz0xPtirsJlxBKpZYnD-1" target="GEz0xPtirsJlxBKpZYnD-5" edge="1">
          <mxGeometry relative="1" as="geometry" />
        </mxCell>
        <mxCell id="GEz0xPtirsJlxBKpZYnD-7" value="" style="edgeStyle=orthogonalEdgeStyle;rounded=0;orthogonalLoop=1;jettySize=auto;html=1;" parent="1" source="GEz0xPtirsJlxBKpZYnD-1" target="GEz0xPtirsJlxBKpZYnD-5" edge="1">
          <mxGeometry relative="1" as="geometry" />
        </mxCell>
        <mxCell id="GEz0xPtirsJlxBKpZYnD-8" style="edgeStyle=orthogonalEdgeStyle;rounded=0;orthogonalLoop=1;jettySize=auto;html=1;exitX=0.25;exitY=1;exitDx=0;exitDy=0;entryX=0.5;entryY=0;entryDx=0;entryDy=0;" parent="1" source="GEz0xPtirsJlxBKpZYnD-1" target="GEz0xPtirsJlxBKpZYnD-9" edge="1">
          <mxGeometry relative="1" as="geometry">
            <mxPoint x="100" y="370" as="targetPoint" />
          </mxGeometry>
        </mxCell>
        <mxCell id="GEz0xPtirsJlxBKpZYnD-11" value="" style="edgeStyle=orthogonalEdgeStyle;rounded=0;orthogonalLoop=1;jettySize=auto;html=1;" parent="1" source="GEz0xPtirsJlxBKpZYnD-1" target="GEz0xPtirsJlxBKpZYnD-10" edge="1">
          <mxGeometry relative="1" as="geometry" />
        </mxCell>
        <mxCell id="GEz0xPtirsJlxBKpZYnD-16" value="" style="edgeStyle=orthogonalEdgeStyle;rounded=0;orthogonalLoop=1;jettySize=auto;html=1;" parent="1" source="GEz0xPtirsJlxBKpZYnD-1" target="GEz0xPtirsJlxBKpZYnD-15" edge="1">
          <mxGeometry relative="1" as="geometry" />
        </mxCell>
        <mxCell id="GEz0xPtirsJlxBKpZYnD-1" value="Oficina" style="rounded=0;whiteSpace=wrap;html=1;" parent="1" vertex="1">
          <mxGeometry x="140" y="220" width="120" height="60" as="geometry" />
        </mxCell>
        <mxCell id="GEz0xPtirsJlxBKpZYnD-2" value="&lt;font style=&quot;color: light-dark(rgb(0, 0, 0), rgb(255, 255, 255));&quot;&gt;&lt;u&gt;Codigo_Oficina&lt;/u&gt;&lt;/font&gt;" style="ellipse;whiteSpace=wrap;html=1;" parent="1" vertex="1">
          <mxGeometry x="140" y="80" width="120" height="80" as="geometry" />
        </mxCell>
        <mxCell id="GEz0xPtirsJlxBKpZYnD-5" value="Direccion_calle" style="ellipse;whiteSpace=wrap;html=1;rounded=0;" parent="1" vertex="1">
          <mxGeometry x="-90" y="220" width="130" height="80" as="geometry" />
        </mxCell>
        <mxCell id="GEz0xPtirsJlxBKpZYnD-9" value="Direccion_numero&amp;nbsp;" style="ellipse;whiteSpace=wrap;html=1;" parent="1" vertex="1">
          <mxGeometry x="10" y="370" width="120" height="80" as="geometry" />
        </mxCell>
        <mxCell id="GEz0xPtirsJlxBKpZYnD-10" value="Ciudad" style="ellipse;whiteSpace=wrap;html=1;rounded=0;" parent="1" vertex="1">
          <mxGeometry x="160" y="360" width="120" height="80" as="geometry" />
        </mxCell>
        <mxCell id="GEz0xPtirsJlxBKpZYnD-12" value="" style="endArrow=classic;html=1;rounded=0;exitX=0.75;exitY=1;exitDx=0;exitDy=0;entryX=-0.022;entryY=0.579;entryDx=0;entryDy=0;entryPerimeter=0;" parent="1" source="GEz0xPtirsJlxBKpZYnD-1" target="GEz0xPtirsJlxBKpZYnD-13" edge="1">
          <mxGeometry width="50" height="50" relative="1" as="geometry">
            <mxPoint x="190" y="300" as="sourcePoint" />
            <mxPoint x="300" y="340" as="targetPoint" />
          </mxGeometry>
        </mxCell>
        <mxCell id="GEz0xPtirsJlxBKpZYnD-13" value="Telefono" style="ellipse;whiteSpace=wrap;html=1;" parent="1" vertex="1">
          <mxGeometry x="310" y="310" width="120" height="80" as="geometry" />
        </mxCell>
        <mxCell id="GEz0xPtirsJlxBKpZYnD-15" value="Fax" style="ellipse;whiteSpace=wrap;html=1;rounded=0;" parent="1" vertex="1">
          <mxGeometry x="360" y="210" width="120" height="80" as="geometry" />
        </mxCell>
        <mxCell id="GEz0xPtirsJlxBKpZYnD-18" value="" style="edgeStyle=orthogonalEdgeStyle;rounded=0;orthogonalLoop=1;jettySize=auto;html=1;" parent="1" source="GEz0xPtirsJlxBKpZYnD-23" target="GEz0xPtirsJlxBKpZYnD-25" edge="1">
          <mxGeometry relative="1" as="geometry" />
        </mxCell>
        <mxCell id="GEz0xPtirsJlxBKpZYnD-19" value="" style="edgeStyle=orthogonalEdgeStyle;rounded=0;orthogonalLoop=1;jettySize=auto;html=1;" parent="1" source="GEz0xPtirsJlxBKpZYnD-23" target="GEz0xPtirsJlxBKpZYnD-25" edge="1">
          <mxGeometry relative="1" as="geometry" />
        </mxCell>
        <mxCell id="GEz0xPtirsJlxBKpZYnD-20" style="edgeStyle=orthogonalEdgeStyle;rounded=0;orthogonalLoop=1;jettySize=auto;html=1;exitX=0.25;exitY=1;exitDx=0;exitDy=0;entryX=0.5;entryY=0;entryDx=0;entryDy=0;" parent="1" source="GEz0xPtirsJlxBKpZYnD-23" target="GEz0xPtirsJlxBKpZYnD-26" edge="1">
          <mxGeometry relative="1" as="geometry">
            <mxPoint x="880" y="590" as="targetPoint" />
          </mxGeometry>
        </mxCell>
        <mxCell id="GEz0xPtirsJlxBKpZYnD-21" value="" style="edgeStyle=orthogonalEdgeStyle;rounded=0;orthogonalLoop=1;jettySize=auto;html=1;" parent="1" source="GEz0xPtirsJlxBKpZYnD-23" target="GEz0xPtirsJlxBKpZYnD-27" edge="1">
          <mxGeometry relative="1" as="geometry" />
        </mxCell>
        <mxCell id="GEz0xPtirsJlxBKpZYnD-22" value="" style="edgeStyle=orthogonalEdgeStyle;rounded=0;orthogonalLoop=1;jettySize=auto;html=1;" parent="1" source="GEz0xPtirsJlxBKpZYnD-23" target="GEz0xPtirsJlxBKpZYnD-30" edge="1">
          <mxGeometry relative="1" as="geometry" />
        </mxCell>
        <mxCell id="GEz0xPtirsJlxBKpZYnD-31" style="edgeStyle=orthogonalEdgeStyle;rounded=0;orthogonalLoop=1;jettySize=auto;html=1;exitX=1;exitY=0.25;exitDx=0;exitDy=0;entryX=0.5;entryY=1;entryDx=0;entryDy=0;" parent="1" source="GEz0xPtirsJlxBKpZYnD-23" target="GEz0xPtirsJlxBKpZYnD-32" edge="1">
          <mxGeometry relative="1" as="geometry">
            <mxPoint x="1110" y="380" as="targetPoint" />
          </mxGeometry>
        </mxCell>
        <mxCell id="GEz0xPtirsJlxBKpZYnD-34" value="" style="edgeStyle=orthogonalEdgeStyle;rounded=0;orthogonalLoop=1;jettySize=auto;html=1;entryX=0;entryY=0.5;entryDx=0;entryDy=0;" parent="1" source="GEz0xPtirsJlxBKpZYnD-23" target="GEz0xPtirsJlxBKpZYnD-33" edge="1">
          <mxGeometry relative="1" as="geometry" />
        </mxCell>
        <mxCell id="GEz0xPtirsJlxBKpZYnD-23" value="Empleado&amp;nbsp;" style="rounded=0;whiteSpace=wrap;html=1;" parent="1" vertex="1">
          <mxGeometry x="920" y="440" width="120" height="60" as="geometry" />
        </mxCell>
        <mxCell id="GEz0xPtirsJlxBKpZYnD-67" style="edgeStyle=orthogonalEdgeStyle;rounded=0;orthogonalLoop=1;jettySize=auto;html=1;exitX=0.5;exitY=1;exitDx=0;exitDy=0;entryX=0.75;entryY=0;entryDx=0;entryDy=0;" parent="1" source="GEz0xPtirsJlxBKpZYnD-24" target="GEz0xPtirsJlxBKpZYnD-23" edge="1">
          <mxGeometry relative="1" as="geometry" />
        </mxCell>
        <mxCell id="GEz0xPtirsJlxBKpZYnD-24" value="&lt;font style=&quot;color: light-dark(rgb(0, 0, 0), rgb(255, 255, 255));&quot;&gt;&lt;u&gt;Codigo_empleado&lt;/u&gt;&lt;/font&gt;" style="ellipse;whiteSpace=wrap;html=1;" parent="1" vertex="1">
          <mxGeometry x="1227.5" y="290" width="120" height="80" as="geometry" />
        </mxCell>
        <mxCell id="GEz0xPtirsJlxBKpZYnD-25" value="Direccion" style="ellipse;whiteSpace=wrap;html=1;rounded=0;" parent="1" vertex="1">
          <mxGeometry x="690" y="440" width="130" height="80" as="geometry" />
        </mxCell>
        <mxCell id="GEz0xPtirsJlxBKpZYnD-26" value="Fecha_nacimiento" style="ellipse;whiteSpace=wrap;html=1;" parent="1" vertex="1">
          <mxGeometry x="790" y="590" width="120" height="80" as="geometry" />
        </mxCell>
        <mxCell id="GEz0xPtirsJlxBKpZYnD-27" value="dni" style="ellipse;whiteSpace=wrap;html=1;rounded=0;" parent="1" vertex="1">
          <mxGeometry x="770" y="280" width="120" height="80" as="geometry" />
        </mxCell>
        <mxCell id="GEz0xPtirsJlxBKpZYnD-28" value="" style="endArrow=classic;html=1;rounded=0;exitX=0.75;exitY=1;exitDx=0;exitDy=0;entryX=-0.022;entryY=0.579;entryDx=0;entryDy=0;entryPerimeter=0;" parent="1" source="GEz0xPtirsJlxBKpZYnD-23" target="GEz0xPtirsJlxBKpZYnD-29" edge="1">
          <mxGeometry width="50" height="50" relative="1" as="geometry">
            <mxPoint x="970" y="520" as="sourcePoint" />
            <mxPoint x="1080" y="560" as="targetPoint" />
          </mxGeometry>
        </mxCell>
        <mxCell id="GEz0xPtirsJlxBKpZYnD-29" value="puesto" style="ellipse;whiteSpace=wrap;html=1;" parent="1" vertex="1">
          <mxGeometry x="1090" y="530" width="120" height="80" as="geometry" />
        </mxCell>
        <mxCell id="GEz0xPtirsJlxBKpZYnD-30" value="Salario_anual" style="ellipse;whiteSpace=wrap;html=1;rounded=0;" parent="1" vertex="1">
          <mxGeometry x="1140" y="430" width="120" height="80" as="geometry" />
        </mxCell>
        <mxCell id="GEz0xPtirsJlxBKpZYnD-32" value="Fecha_ingreso" style="ellipse;whiteSpace=wrap;html=1;" parent="1" vertex="1">
          <mxGeometry x="1060" y="280" width="120" height="80" as="geometry" />
        </mxCell>
        <mxCell id="GEz0xPtirsJlxBKpZYnD-36" value="" style="edgeStyle=orthogonalEdgeStyle;rounded=0;orthogonalLoop=1;jettySize=auto;html=1;" parent="1" source="GEz0xPtirsJlxBKpZYnD-33" target="GEz0xPtirsJlxBKpZYnD-35" edge="1">
          <mxGeometry relative="1" as="geometry" />
        </mxCell>
        <mxCell id="GEz0xPtirsJlxBKpZYnD-37" style="edgeStyle=orthogonalEdgeStyle;rounded=0;orthogonalLoop=1;jettySize=auto;html=1;exitX=0.5;exitY=1;exitDx=0;exitDy=0;entryX=0.5;entryY=0;entryDx=0;entryDy=0;" parent="1" source="GEz0xPtirsJlxBKpZYnD-33" target="GEz0xPtirsJlxBKpZYnD-39" edge="1">
          <mxGeometry relative="1" as="geometry">
            <mxPoint x="810" y="850" as="targetPoint" />
            <Array as="points">
              <mxPoint x="960" y="710" />
              <mxPoint x="820" y="710" />
            </Array>
          </mxGeometry>
        </mxCell>
        <mxCell id="GEz0xPtirsJlxBKpZYnD-40" style="edgeStyle=orthogonalEdgeStyle;rounded=0;orthogonalLoop=1;jettySize=auto;html=1;exitX=0.5;exitY=0;exitDx=0;exitDy=0;" parent="1" source="GEz0xPtirsJlxBKpZYnD-33" target="GEz0xPtirsJlxBKpZYnD-41" edge="1">
          <mxGeometry relative="1" as="geometry">
            <mxPoint x="1130" y="770" as="targetPoint" />
            <Array as="points">
              <mxPoint x="1000" y="710" />
              <mxPoint x="1130" y="710" />
            </Array>
          </mxGeometry>
        </mxCell>
        <mxCell id="GEz0xPtirsJlxBKpZYnD-33" value="" style="triangle;whiteSpace=wrap;html=1;rounded=0;direction=south;" parent="1" vertex="1">
          <mxGeometry x="940" y="630" width="80" height="60" as="geometry" />
        </mxCell>
        <mxCell id="GEz0xPtirsJlxBKpZYnD-35" value="Supervisor&amp;nbsp;" style="whiteSpace=wrap;html=1;rounded=0;" parent="1" vertex="1">
          <mxGeometry x="920" y="770" width="120" height="60" as="geometry" />
        </mxCell>
        <mxCell id="GEz0xPtirsJlxBKpZYnD-43" value="" style="edgeStyle=orthogonalEdgeStyle;rounded=0;orthogonalLoop=1;jettySize=auto;html=1;" parent="1" source="GEz0xPtirsJlxBKpZYnD-39" target="GEz0xPtirsJlxBKpZYnD-42" edge="1">
          <mxGeometry relative="1" as="geometry" />
        </mxCell>
        <mxCell id="GEz0xPtirsJlxBKpZYnD-45" value="" style="edgeStyle=orthogonalEdgeStyle;rounded=0;orthogonalLoop=1;jettySize=auto;html=1;" parent="1" source="GEz0xPtirsJlxBKpZYnD-39" target="GEz0xPtirsJlxBKpZYnD-44" edge="1">
          <mxGeometry relative="1" as="geometry" />
        </mxCell>
        <mxCell id="GEz0xPtirsJlxBKpZYnD-39" value="Director" style="rounded=0;whiteSpace=wrap;html=1;" parent="1" vertex="1">
          <mxGeometry x="760" y="770" width="120" height="60" as="geometry" />
        </mxCell>
        <mxCell id="GEz0xPtirsJlxBKpZYnD-47" value="" style="edgeStyle=orthogonalEdgeStyle;rounded=0;orthogonalLoop=1;jettySize=auto;html=1;" parent="1" source="GEz0xPtirsJlxBKpZYnD-41" target="GEz0xPtirsJlxBKpZYnD-46" edge="1">
          <mxGeometry relative="1" as="geometry" />
        </mxCell>
        <mxCell id="GEz0xPtirsJlxBKpZYnD-41" value="Administrativo" style="rounded=0;whiteSpace=wrap;html=1;" parent="1" vertex="1">
          <mxGeometry x="1070" y="770" width="170" height="60" as="geometry" />
        </mxCell>
        <mxCell id="GEz0xPtirsJlxBKpZYnD-42" value="pago_anual_vehiculo" style="ellipse;whiteSpace=wrap;html=1;rounded=0;" parent="1" vertex="1">
          <mxGeometry x="530" y="760" width="130" height="80" as="geometry" />
        </mxCell>
        <mxCell id="GEz0xPtirsJlxBKpZYnD-44" value="Bonificacion_mensual" style="ellipse;whiteSpace=wrap;html=1;rounded=0;" parent="1" vertex="1">
          <mxGeometry x="640" y="910" width="130" height="80" as="geometry" />
        </mxCell>
        <mxCell id="GEz0xPtirsJlxBKpZYnD-46" value="Velocidad_mecanografia" style="ellipse;whiteSpace=wrap;html=1;rounded=0;" parent="1" vertex="1">
          <mxGeometry x="1082.5" y="930" width="145" height="80" as="geometry" />
        </mxCell>
        <mxCell id="GEz0xPtirsJlxBKpZYnD-54" value="" style="edgeStyle=orthogonalEdgeStyle;rounded=0;orthogonalLoop=1;jettySize=auto;html=1;" parent="1" source="GEz0xPtirsJlxBKpZYnD-49" target="GEz0xPtirsJlxBKpZYnD-53" edge="1">
          <mxGeometry relative="1" as="geometry" />
        </mxCell>
        <mxCell id="GEz0xPtirsJlxBKpZYnD-56" value="" style="edgeStyle=orthogonalEdgeStyle;rounded=0;orthogonalLoop=1;jettySize=auto;html=1;" parent="1" source="GEz0xPtirsJlxBKpZYnD-49" target="GEz0xPtirsJlxBKpZYnD-55" edge="1">
          <mxGeometry relative="1" as="geometry" />
        </mxCell>
        <mxCell id="GEz0xPtirsJlxBKpZYnD-57" style="edgeStyle=orthogonalEdgeStyle;rounded=0;orthogonalLoop=1;jettySize=auto;html=1;exitX=0.25;exitY=1;exitDx=0;exitDy=0;entryX=0.5;entryY=0;entryDx=0;entryDy=0;" parent="1" source="GEz0xPtirsJlxBKpZYnD-49" target="GEz0xPtirsJlxBKpZYnD-58" edge="1">
          <mxGeometry relative="1" as="geometry">
            <mxPoint x="620" y="680" as="targetPoint" />
          </mxGeometry>
        </mxCell>
        <mxCell id="GEz0xPtirsJlxBKpZYnD-49" value="Pariente" style="shape=ext;margin=3;double=1;whiteSpace=wrap;html=1;align=center;" parent="1" vertex="1">
          <mxGeometry x="440" y="550" width="100" height="40" as="geometry" />
        </mxCell>
        <mxCell id="GEz0xPtirsJlxBKpZYnD-51" value="" style="edgeStyle=orthogonalEdgeStyle;rounded=0;orthogonalLoop=1;jettySize=auto;html=1;" parent="1" source="GEz0xPtirsJlxBKpZYnD-50" target="GEz0xPtirsJlxBKpZYnD-49" edge="1">
          <mxGeometry relative="1" as="geometry" />
        </mxCell>
        <mxCell id="GEz0xPtirsJlxBKpZYnD-50" value="nombre_pariente" style="ellipse;whiteSpace=wrap;html=1;align=center;" parent="1" vertex="1">
          <mxGeometry x="440" y="470" width="100" height="40" as="geometry" />
        </mxCell>
        <mxCell id="GEz0xPtirsJlxBKpZYnD-53" value="relacion" style="ellipse;whiteSpace=wrap;html=1;" parent="1" vertex="1">
          <mxGeometry x="435" y="670" width="110" height="80" as="geometry" />
        </mxCell>
        <mxCell id="GEz0xPtirsJlxBKpZYnD-55" value="direccion" style="ellipse;whiteSpace=wrap;html=1;" parent="1" vertex="1">
          <mxGeometry x="280" y="530" width="100" height="80" as="geometry" />
        </mxCell>
        <mxCell id="GEz0xPtirsJlxBKpZYnD-58" value="Telefono" style="ellipse;whiteSpace=wrap;html=1;align=center;" parent="1" vertex="1">
          <mxGeometry x="320" y="680" width="100" height="40" as="geometry" />
        </mxCell>
        <mxCell id="GEz0xPtirsJlxBKpZYnD-61" value="" style="edgeStyle=orthogonalEdgeStyle;rounded=0;orthogonalLoop=1;jettySize=auto;html=1;" parent="1" source="GEz0xPtirsJlxBKpZYnD-59" target="GEz0xPtirsJlxBKpZYnD-49" edge="1">
          <mxGeometry relative="1" as="geometry" />
        </mxCell>
        <mxCell id="GEz0xPtirsJlxBKpZYnD-62" style="edgeStyle=orthogonalEdgeStyle;rounded=0;orthogonalLoop=1;jettySize=auto;html=1;exitX=1;exitY=0.5;exitDx=0;exitDy=0;entryX=0;entryY=0.5;entryDx=0;entryDy=0;" parent="1" source="GEz0xPtirsJlxBKpZYnD-59" target="GEz0xPtirsJlxBKpZYnD-23" edge="1">
          <mxGeometry relative="1" as="geometry">
            <Array as="points">
              <mxPoint x="840" y="570" />
              <mxPoint x="840" y="490" />
              <mxPoint x="920" y="490" />
            </Array>
          </mxGeometry>
        </mxCell>
        <mxCell id="GEz0xPtirsJlxBKpZYnD-59" value="Relationship" style="shape=rhombus;double=1;perimeter=rhombusPerimeter;whiteSpace=wrap;html=1;align=center;" parent="1" vertex="1">
          <mxGeometry x="590" y="540" width="120" height="60" as="geometry" />
        </mxCell>
        <mxCell id="GEz0xPtirsJlxBKpZYnD-65" style="edgeStyle=orthogonalEdgeStyle;rounded=0;orthogonalLoop=1;jettySize=auto;html=1;entryX=1;entryY=0.25;entryDx=0;entryDy=0;" parent="1" source="GEz0xPtirsJlxBKpZYnD-63" target="GEz0xPtirsJlxBKpZYnD-1" edge="1">
          <mxGeometry relative="1" as="geometry">
            <Array as="points">
              <mxPoint x="260" y="150" />
            </Array>
          </mxGeometry>
        </mxCell>
        <mxCell id="GEz0xPtirsJlxBKpZYnD-66" style="edgeStyle=orthogonalEdgeStyle;rounded=0;orthogonalLoop=1;jettySize=auto;html=1;exitX=1;exitY=0.5;exitDx=0;exitDy=0;" parent="1" source="GEz0xPtirsJlxBKpZYnD-63" target="GEz0xPtirsJlxBKpZYnD-23" edge="1">
          <mxGeometry relative="1" as="geometry" />
        </mxCell>
        <mxCell id="GEz0xPtirsJlxBKpZYnD-63" value="trabaja_en" style="shape=rhombus;perimeter=rhombusPerimeter;whiteSpace=wrap;html=1;align=center;" parent="1" vertex="1">
          <mxGeometry x="540" y="120" width="120" height="60" as="geometry" />
        </mxCell>
        <mxCell id="GEz0xPtirsJlxBKpZYnD-68" value="1" style="text;html=1;align=center;verticalAlign=middle;whiteSpace=wrap;rounded=0;" parent="1" vertex="1">
          <mxGeometry x="460" y="120" width="60" height="30" as="geometry" />
        </mxCell>
        <mxCell id="GEz0xPtirsJlxBKpZYnD-69" value="2" style="text;html=1;align=center;verticalAlign=middle;whiteSpace=wrap;rounded=0;" parent="1" vertex="1">
          <mxGeometry x="675" y="120" width="60" height="30" as="geometry" />
        </mxCell>
      </root>
    </mxGraphModel>
  </diagram>
</mxfile>
